<svg width="96" height="14" viewBox="0 0 96 14" fill="none" xmlns="http://www.w3.org/2000/svg">
<path d="M5.59166 13.887C2.20778 13.887 0 11.7601 0 8.66097C0 5.52133 2.20778 3.41473 5.59166 3.41473C8.66605 3.41473 10.9151 5.11621 10.9151 7.62793V7.83049H8.70731V7.70895C8.70731 6.14926 7.55184 5.37954 5.5504 5.37954C3.23945 5.37954 2.20778 6.45309 2.20778 8.66097C2.20778 10.8283 3.23945 11.9221 5.5504 11.9221C7.55184 11.9221 8.70731 11.1524 8.70731 9.59274V9.45095H10.9151V9.67376C10.9151 12.1855 8.66605 13.887 5.59166 13.887Z" fill="white"/>
<path d="M15.5755 13.887C13.4503 13.887 12.1091 12.9147 12.1091 11.2537C12.1091 9.69402 13.3884 8.88378 15.4104 8.66097L20.0736 8.17483V7.58742C20.0736 5.92645 19.3308 5.33903 17.3706 5.33903C15.4723 5.33903 14.5438 5.9467 14.5438 7.42537V7.50639H12.3361V7.42537C12.3361 5.13647 14.2756 3.41473 17.5357 3.41473C20.7958 3.41473 22.2607 5.15673 22.2607 7.56716V13.6844H20.218V11.1727H20.0736C19.5371 12.8742 17.9071 13.887 15.5755 13.887ZM14.3375 11.1119C14.3375 11.9221 14.8946 12.307 16.1739 12.307C18.5055 12.307 20.0736 11.4563 20.0736 9.4712L16.0501 9.91683C14.8946 10.0586 14.3375 10.3219 14.3375 11.1119Z" fill="white"/>
<path d="M26.4784 13.6844H24.2499V3.61729H26.2927V6.33156H26.4371C26.7466 4.7111 27.8608 3.41473 29.9654 3.41473C32.297 3.41473 33.308 5.05545 33.308 6.95949V8.27611H31.1002V7.38486C31.1002 5.9467 30.4812 5.27826 28.9544 5.27826C27.2005 5.27826 26.4784 6.23028 26.4784 8.03304V13.6844Z" fill="white"/>
<path d="M39.8661 13.887C36.5028 13.887 34.295 12.0234 34.295 8.66097C34.295 5.52133 36.4822 3.41473 39.8248 3.41473C43.0024 3.41473 45.1689 5.13647 45.1689 8.19509C45.1689 8.55969 45.1482 8.84327 45.0863 9.14711H36.379C36.4616 11.0917 37.4313 12.1247 39.8042 12.1247C41.9501 12.1247 42.8373 11.436 42.8373 10.2409V10.0789H45.0657V10.2612C45.0657 12.4083 42.9198 13.887 39.8661 13.887ZM39.7835 5.13647C37.5139 5.13647 36.5235 6.129 36.3997 7.93176H43.0643V7.89125C43.0643 6.02772 41.9707 5.13647 39.7835 5.13647Z" fill="white"/>
<path d="M47.2093 5.54159H46.4665V4.20471H47.1474C47.4982 4.20471 47.6633 4.10343 47.6633 3.67806V3.25268H46.4253V0.113043H49.2314V3.6578C49.2314 4.93391 48.4886 5.54159 47.2093 5.54159Z" fill="#CD1111"/>
<path d="M52.9308 13.6844H50.888V0.113043H53.1165V6.35182H53.2403C53.6529 4.65033 55.0147 3.41473 57.4701 3.41473C60.627 3.41473 62.3602 5.52133 62.3602 8.66097C62.3602 11.7601 60.6064 13.887 57.3463 13.887C55.0147 13.887 53.5085 12.7931 53.0752 10.7878H52.9308V13.6844ZM53.1165 8.76225C53.1165 10.8688 54.437 11.8816 56.6448 11.8816C58.8938 11.8816 60.1318 11.0714 60.1318 8.66097C60.1318 6.23028 58.8732 5.3998 56.686 5.3998C54.3751 5.3998 53.1165 6.45309 53.1165 8.6002V8.76225Z" fill="white"/>
<path d="M69.1457 13.887C65.7412 13.887 63.4509 11.7601 63.4509 8.66097C63.4509 5.52133 65.7412 3.41473 69.1457 3.41473C72.5709 3.41473 74.8612 5.52133 74.8612 8.66097C74.8612 11.7601 72.5709 13.887 69.1457 13.887ZM69.1457 11.9424C71.6424 11.9424 72.6741 10.7878 72.6741 8.66097C72.6741 6.51386 71.6424 5.33903 69.1457 5.33903C66.6697 5.33903 65.6381 6.51386 65.6381 8.66097C65.6381 10.7878 66.6697 11.9424 69.1457 11.9424Z" fill="white"/>
<path d="M80.7495 13.887C77.8608 13.887 76.4577 12.0032 76.4577 9.67376V3.61729H78.6655V9.08634C78.6655 10.9701 79.5527 11.9221 81.7192 11.9221C83.9889 11.9221 85.0412 10.7878 85.0412 8.6002V3.61729H87.249V13.6844H85.2063V10.565H85.0825C84.7524 12.2665 83.3906 13.887 80.7495 13.887Z" fill="white"/>
<path d="M96 13.6844H93.6478C91.44 13.6844 90.0782 12.7324 90.0782 10.2814V5.44031H88.345V3.61729H90.0782V1.40941H92.286V3.61729H96V5.44031H92.286V10.1599C92.286 11.3955 92.8637 11.7196 94.143 11.7196H96V13.6844Z" fill="white"/>
</svg>
