<svg width="24" height="24" viewBox="0 0 24 24" fill="none" xmlns="http://www.w3.org/2000/svg">
<rect x="4" y="4" width="16" height="16" fill="#CD1111"/>
<path d="M21 4.32353V19.6765C21 20.0275 20.8606 20.3641 20.6123 20.6123C20.3641 20.8606 20.0275 21 19.6765 21H4.32353C3.97251 21 3.63586 20.8606 3.38765 20.6123C3.13944 20.3641 3 20.0275 3 19.6765V4.32353C3 3.97251 3.13944 3.63586 3.38765 3.38765C3.63586 3.13944 3.97251 3 4.32353 3H19.6765C20.0275 3 20.3641 3.13944 20.6123 3.38765C20.8606 3.63586 21 3.97251 21 4.32353ZM8.29412 9.88235H5.64706V18.3529H8.29412V9.88235ZM8.53235 6.97059C8.53375 6.77036 8.49569 6.57182 8.42035 6.3863C8.34502 6.20078 8.23387 6.03191 8.09328 5.88935C7.95268 5.74678 7.78537 5.6333 7.60091 5.5554C7.41646 5.47749 7.21846 5.43668 7.01824 5.43529H6.97059C6.5634 5.43529 6.17289 5.59705 5.88497 5.88497C5.59705 6.17289 5.43529 6.5634 5.43529 6.97059C5.43529 7.37777 5.59705 7.76828 5.88497 8.05621C6.17289 8.34413 6.5634 8.50588 6.97059 8.50588C7.17083 8.51081 7.37008 8.47623 7.55696 8.40413C7.74383 8.33202 7.91467 8.2238 8.0597 8.08565C8.20474 7.94749 8.32113 7.78212 8.40223 7.59897C8.48333 7.41582 8.52755 7.21848 8.53235 7.01824V6.97059ZM18.3529 13.2071C18.3529 10.6606 16.7329 9.67059 15.1235 9.67059C14.5966 9.6442 14.0719 9.75644 13.6019 9.9961C13.1318 10.2358 12.7328 10.5945 12.4447 11.0365H12.3706V9.88235H9.88235V18.3529H12.5294V13.8476C12.4911 13.3862 12.6365 12.9283 12.9339 12.5735C13.2313 12.2186 13.6567 11.9954 14.1176 11.9524H14.2182C15.06 11.9524 15.6847 12.4818 15.6847 13.8159V18.3529H18.3318L18.3529 13.2071Z" fill="#CD1111"/>
<mask id="mask0_284_244" style="mask-type:alpha" maskUnits="userSpaceOnUse" x="5" y="5" width="14" height="14">
<rect x="5" y="5" width="14" height="14" fill="#D9D9D9"/>
</mask>
<g mask="url(#mask0_284_244)">
<path d="M7.33329 16.6666C7.01246 16.6666 6.73781 16.5523 6.50933 16.3239C6.28086 16.0954 6.16663 15.8208 6.16663 15.4999V8.49992C6.16663 8.17909 6.28086 7.90443 6.50933 7.67596C6.73781 7.44749 7.01246 7.33325 7.33329 7.33325H16.6666C16.9875 7.33325 17.2621 7.44749 17.4906 7.67596C17.7191 7.90443 17.8333 8.17909 17.8333 8.49992V15.4999C17.8333 15.8208 17.7191 16.0954 17.4906 16.3239C17.2621 16.5523 16.9875 16.6666 16.6666 16.6666H7.33329ZM12 12.5833L7.33329 9.66659V15.4999H16.6666V9.66659L12 12.5833ZM12 11.4166L16.6666 8.49992H7.33329L12 11.4166ZM7.33329 9.66659V8.49992V15.4999V9.66659Z" fill="white"/>
</g>
</svg>
