<svg width="24" height="24" viewBox="0 0 24 24" fill="none" xmlns="http://www.w3.org/2000/svg">
<path d="M21 4.32353V19.6765C21 20.0275 20.8606 20.3641 20.6123 20.6123C20.3641 20.8606 20.0275 21 19.6765 21H4.32353C3.97251 21 3.63586 20.8606 3.38765 20.6123C3.13944 20.3641 3 20.0275 3 19.6765V4.32353C3 3.97251 3.13944 3.63586 3.38765 3.38765C3.63586 3.13944 3.97251 3 4.32353 3H19.6765C20.0275 3 20.3641 3.13944 20.6123 3.38765C20.8606 3.63586 21 3.97251 21 4.32353ZM8.29412 9.88235H5.64706V18.3529H8.29412V9.88235ZM8.53235 6.97059C8.53375 6.77036 8.49569 6.57182 8.42035 6.3863C8.34502 6.20078 8.23387 6.03191 8.09328 5.88935C7.95268 5.74678 7.78537 5.6333 7.60091 5.5554C7.41646 5.47749 7.21846 5.43668 7.01824 5.43529H6.97059C6.5634 5.43529 6.1729 5.59705 5.88497 5.88497C5.59705 6.1729 5.43529 6.5634 5.43529 6.97059C5.43529 7.37777 5.59705 7.76828 5.88497 8.05621C6.1729 8.34413 6.5634 8.50588 6.97059 8.50588C7.17083 8.51081 7.37008 8.47623 7.55696 8.40413C7.74383 8.33202 7.91467 8.2238 8.0597 8.08565C8.20474 7.94749 8.32113 7.78212 8.40223 7.59897C8.48333 7.41582 8.52754 7.21848 8.53235 7.01824V6.97059ZM18.3529 13.2071C18.3529 10.6606 16.7329 9.67059 15.1235 9.67059C14.5966 9.6442 14.0719 9.75644 13.6019 9.9961C13.1318 10.2358 12.7328 10.5945 12.4447 11.0365H12.3706V9.88235H9.88235V18.3529H12.5294V13.8476C12.4911 13.3862 12.6365 12.9283 12.9339 12.5735C13.2313 12.2186 13.6566 11.9954 14.1176 11.9524H14.2182C15.06 11.9524 15.6847 12.4818 15.6847 13.8159V18.3529H18.3318L18.3529 13.2071Z" fill="#CD1111"/>
<rect x="4" y="4" width="16" height="16" fill="#CD1111"/>
<path d="M12 6C10.3705 6 10.1662 6.00691 9.5262 6.0361C8.88757 6.06523 8.45142 6.16668 8.06976 6.31497C7.67521 6.46831 7.3406 6.67348 7.00705 7.00703C6.67348 7.34058 6.46831 7.67522 6.31499 8.06978C6.16666 8.45142 6.06525 8.88757 6.03608 9.5262C6.0069 10.1662 6 10.3705 6 12C6 13.6295 6.0069 13.8338 6.03608 14.4738C6.06525 15.1124 6.16666 15.5486 6.31499 15.9302C6.46833 16.3248 6.6735 16.6594 7.00705 16.993C7.34062 17.3265 7.67521 17.5317 8.06976 17.685C8.45142 17.8333 8.88757 17.9347 9.5262 17.9639C10.1662 17.9931 10.3705 18 12 18C13.6295 18 13.8338 17.9931 14.4738 17.9639C15.1124 17.9348 15.5486 17.8333 15.9302 17.685C16.3248 17.5317 16.6594 17.3265 16.993 16.993C17.3265 16.6594 17.5317 16.3248 17.685 15.9302C17.8333 15.5486 17.9348 15.1124 17.9639 14.4738C17.9931 13.8338 18 13.6295 18 12C18 10.3705 17.9931 10.1662 17.9639 9.5262C17.9348 8.88757 17.8333 8.45142 17.685 8.06978C17.5317 7.67522 17.3265 7.34058 16.993 7.00703C16.6594 6.67348 16.3248 6.46831 15.9302 6.31497C15.5486 6.16668 15.1124 6.06523 14.4738 6.0361C13.8338 6.00691 13.6295 6 12 6ZM12 7.08107C13.6021 7.08107 13.7918 7.0872 14.4245 7.11607C15.0095 7.14274 15.3272 7.24048 15.5386 7.32265C15.8187 7.43151 16.0186 7.56151 16.2285 7.77147C16.4385 7.98143 16.5685 8.18131 16.6774 8.46137C16.7595 8.67279 16.8573 8.9905 16.8839 9.57549C16.9128 10.2082 16.9189 10.3979 16.9189 12C16.9189 13.6021 16.9128 13.7918 16.8839 14.4245C16.8573 15.0095 16.7595 15.3272 16.6774 15.5386C16.5685 15.8187 16.4385 16.0186 16.2285 16.2285C16.0186 16.4385 15.8187 16.5685 15.5386 16.6774C15.3272 16.7595 15.0095 16.8573 14.4245 16.8839C13.7919 16.9128 13.6022 16.9189 12 16.9189C10.3978 16.9189 10.2081 16.9128 9.57549 16.8839C8.99048 16.8573 8.67279 16.7595 8.46138 16.6774C8.1813 16.5685 7.98143 16.4385 7.77149 16.2285C7.56153 16.0186 7.43151 15.8187 7.32265 15.5386C7.24048 15.3272 7.14275 15.0095 7.11607 14.4245C7.0872 13.7918 7.08107 13.6021 7.08107 12C7.08107 10.3979 7.0872 10.2082 7.11607 9.57549C7.14275 8.99048 7.24048 8.67279 7.32265 8.46138C7.43151 8.1813 7.56153 7.98143 7.77147 7.77149C7.98143 7.56151 8.18131 7.43151 8.46137 7.32265C8.67279 7.24048 8.9905 7.14274 9.57549 7.11607C10.2082 7.0872 10.3979 7.08107 12 7.08107" fill="white"/>
<path d="M12 14C10.8954 14 10 13.1046 10 12C10 10.8954 10.8954 9.99997 12 9.99997C13.1046 9.99997 14 10.8954 14 12C14 13.1046 13.1046 14 12 14ZM12 8.9189C10.2984 8.9189 8.91895 10.2983 8.91895 12C8.91895 13.7016 10.2984 15.0811 12 15.0811C13.7017 15.0811 15.0811 13.7016 15.0811 12C15.0811 10.2983 13.7017 8.9189 12 8.9189ZM15.9228 8.79716C15.9228 9.19482 15.6005 9.51716 15.2028 9.51716C14.8052 9.51716 14.4828 9.19482 14.4828 8.79716C14.4828 8.39952 14.8052 8.07715 15.2028 8.07715C15.6005 8.07715 15.9228 8.39952 15.9228 8.79716Z" fill="white"/>
</svg>
