<svg width="24" height="24" viewBox="0 0 24 24" fill="none" xmlns="http://www.w3.org/2000/svg">
<rect x="4" y="4" width="16" height="16" fill="#CD1111"/>
<path d="M21 4.32353V19.6765C21 20.0275 20.8606 20.3641 20.6123 20.6123C20.3641 20.8606 20.0275 21 19.6765 21H4.32353C3.97251 21 3.63586 20.8606 3.38765 20.6123C3.13944 20.3641 3 20.0275 3 19.6765V4.32353C3 3.97251 3.13944 3.63586 3.38765 3.38765C3.63586 3.13944 3.97251 3 4.32353 3H19.6765C20.0275 3 20.3641 3.13944 20.6123 3.38765C20.8606 3.63586 21 3.97251 21 4.32353ZM8.29412 9.88235H5.64706V18.3529H8.29412V9.88235ZM8.53235 6.97059C8.53375 6.77036 8.49569 6.57182 8.42035 6.3863C8.34502 6.20078 8.23387 6.03191 8.09328 5.88935C7.95268 5.74678 7.78537 5.6333 7.60091 5.5554C7.41646 5.47749 7.21846 5.43668 7.01824 5.43529H6.97059C6.5634 5.43529 6.17289 5.59705 5.88497 5.88497C5.59705 6.17289 5.43529 6.5634 5.43529 6.97059C5.43529 7.37777 5.59705 7.76828 5.88497 8.05621C6.17289 8.34413 6.5634 8.50588 6.97059 8.50588C7.17083 8.51081 7.37008 8.47623 7.55696 8.40413C7.74383 8.33202 7.91467 8.2238 8.0597 8.08565C8.20474 7.94749 8.32113 7.78212 8.40223 7.59897C8.48333 7.41582 8.52755 7.21848 8.53235 7.01824V6.97059ZM18.3529 13.2071C18.3529 10.6606 16.7329 9.67059 15.1235 9.67059C14.5966 9.6442 14.0719 9.75644 13.6019 9.9961C13.1318 10.2358 12.7328 10.5945 12.4447 11.0365H12.3706V9.88235H9.88235V18.3529H12.5294V13.8476C12.4911 13.3862 12.6365 12.9283 12.9339 12.5735C13.2313 12.2186 13.6567 11.9954 14.1176 11.9524H14.2182C15.06 11.9524 15.6847 12.4818 15.6847 13.8159V18.3529H18.3318L18.3529 13.2071Z" fill="#CD1111"/>
<path d="M16 8C17.38 9.36 17.9 11.26 17.5733 13.0333C17.8467 13.5133 18 14.0733 18 14.6667C18 15.5507 17.6488 16.3986 17.0237 17.0237C16.3986 17.6488 15.5507 18 14.6667 18C14.0733 18 13.5133 17.8467 13.0333 17.5733C11.26 17.9 9.36 17.38 8 16C6.62 14.64 6.1 12.74 6.42667 10.9667C6.15333 10.4867 6 9.92667 6 9.33333C6 8.44928 6.35119 7.60143 6.97631 6.97631C7.60143 6.35119 8.44928 6 9.33333 6C9.92667 6 10.4867 6.15333 10.9667 6.42667C12.74 6.1 14.64 6.62 16 8ZM12.0267 15.44C13.94 15.44 14.8933 14.52 14.8933 13.28C14.8933 12.4867 14.52 11.64 13.0733 11.3133L11.7467 11.02C11.24 10.9067 10.6667 10.7533 10.6667 10.28C10.6667 9.8 11.0667 9.46667 11.8 9.46667C13.2867 9.46667 13.1467 10.4867 13.8867 10.4867C14.2733 10.4867 14.6067 10.26 14.6067 9.86667C14.6067 8.95333 13.1467 8.26667 11.9067 8.26667C10.5667 8.26667 9.13333 8.84 9.13333 10.36C9.13333 11.0933 9.39333 11.8733 10.8333 12.2333L12.6267 12.6867C13.1667 12.82 13.3 13.12 13.3 13.4C13.3 13.8533 12.8467 14.3 12.0267 14.3C10.42 14.3 10.64 13.0667 9.78 13.0667C9.39333 13.0667 9.11333 13.3333 9.11333 13.7133C9.11333 14.4533 10 15.44 12.0267 15.44Z" fill="white"/>
</svg>
